/* XPM */
static char * bottom_left_active_xpm[] = {
"24 24 2 1",
" 	c #29353B",
".	c #0f56d9 s active_color_1",
"..                      ",
"..                      ",
"..                      ",
"..                      ",
"..                      ",
"..                      ",
"..                      ",
"..                      ",
"..                      ",
"..                      ",
"..                      ",
"..                      ",
"..                      ",
"..                      ",
"..                      ",
"..                      ",
"..                      ",
"..                      ",
"..                      ",
"..                      ",
"..                      ",
"..                      ",
"........................",
"........................"};
