/* XPM */
static char * close_inactive_xpm[] = {
"46 36 3 1",
" 	c None",
".	c #EDECEB",
"+	c #0f56d9 s active_color_1",
"                                              ",
"                                              ",
"..............................................",
"..............................................",
"..............................................",
"..............................................",
"..............................................",
"..............................................",
"..............................................",
"..............................................",
"..............................................",
"..............................................",
"................++..........++................",
"................+++........+++................",
".................+++......+++.................",
"..................+++....+++..................",
"...................+++..+++...................",
"....................++++++....................",
".....................++++.....................",
".....................++++.....................",
"....................++++++....................",
"...................+++..+++...................",
"..................+++....+++..................",
".................+++......+++.................",
"................+++........+++................",
"................++..........++................",
"..............................................",
"..............................................",
"..............................................",
"..............................................",
"..............................................",
"..............................................",
"..............................................",
"..............................................",
"..............................................",
".............................................."};
