/* XPM */
static char * close_prelight_xpm[] = {
"46 36 4 1",
" 	c #1d2324",
".	c #EDECEB",
"+	c #FF0000",
"@	c #000000",
"                                              ",
"                                              ",
".++++++++++++++++++++++++++++++++++++++++++++.",
".++++++++++++++++++++++++++++++++++++++++++++.",
".++++++++++++++++++++++++++++++++++++++++++++.",
".++++++++++++++++++++++++++++++++++++++++++++.",
"..............................................",
"..............................................",
"..............................................",
"..............................................",
"..............................................",
"..............................................",
"................@@..........@@................",
"................@@@........@@@................",
".................@@@......@@@.................",
"..................@@@....@@@..................",
"...................@@@..@@@...................",
"....................@@@@@@....................",
".....................@@@@.....................",
".....................@@@@.....................",
"....................@@@@@@....................",
"...................@@@..@@@...................",
"..................@@@....@@@..................",
".................@@@......@@@.................",
"................@@@........@@@................",
"................@@..........@@................",
"..............................................",
"..............................................",
"..............................................",
"..............................................",
"..............................................",
"..............................................",
"..............................................",
"..............................................",
"..............................................",
".............................................."};
