/* XPM */
static char * left_inactive_xpm[] = {
"5 24 3 1",
".	c #9598A4",
"+	c #EDECEB",
" 	c #29353B",
"..++ ",
"..++ ",
"..++ ",
"..++ ",
"..++ ",
"..++ ",
"..++ ",
"..++ ",
"..++ ",
"..++ ",
"..++ ",
"..++ ",
"..++ ",
"..++ ",
"..++ ",
"..++ ",
"..++ ",
"..++ ",
"..++ ",
"..++ ",
"..++ ",
"..++ ",
"..++ ",
"..++ "};
