/* XPM */
static char * maximize_toggled_prelight_xpm[] = {
"46 36 3 1",
" 	c #1d2324",
".	c #EDECEB",
"+	c #000000",
"                                              ",
"                                              ",
"..............................................",
"..............................................",
".++++++++++++++++++++++++++++++++++++++++++++.",
".++++++++++++++++++++++++++++++++++++++++++++.",
".++++++++++++++++++++++++++++++++++++++++++++.",
".++++++++++++++++++++++++++++++++++++++++++++.",
"..............................................",
"..............................................",
"..............................................",
"..............................................",
"..................++++++++++++................",
"..................++++++++++++................",
"............................++................",
"................+++++++++++.++................",
"................+++++++++++.++................",
"................++.......++.++................",
"................++.......++.++................",
"................++.......++.++................",
"................++.......++.++................",
"................++.......++.++................",
"................++.......++.++................",
"................++.......++.++................",
"................+++++++++++...................",
"................+++++++++++...................",
"..............................................",
"..............................................",
"..............................................",
"..............................................",
"..............................................",
"..............................................",
"..............................................",
"..............................................",
"..............................................",
".............................................."};
