/* XPM */
static char * menu_pressed_xpm[] = {
"46 36 4 1",
" 	c None",
".	c #EDECEB",
"+	c #1d2324",
"@	c #FFFFFF",
"                                              ",
"                                              ",
"..............................................",
"..............................................",
".++++++++++++++++++++++++++++++++++++++++++++.",
".++++++++++++++++++++++++++++++++++++++++++++.",
".++++++++++++++++++++++++++++++++++++++++++++.",
".++++++++++++++++++++++++++++++++++++++++++++.",
".++++++++++++++++++++++++++++++++++++++++++++.",
".++++++++++++++++++++++++++++++++++++++++++++.",
".++++++++++++++++++++++++++++++++++++++++++++.",
".++++++++++++++++++++++++++++++++++++++++++++.",
".+++++++++++++++@@@@@@@@@@@@@@+++++++++++++++.",
".+++++++++++++++@@@@@@@@@@@@@@+++++++++++++++.",
".++++++++++++++++++++++++++++++++++++++++++++.",
".++++++++++++++++++++++++++++++++++++++++++++.",
".++++++++++++++++++++++++++++++++++++++++++++.",
".++++++++++++++++++++++++++++++++++++++++++++.",
".+++++++++++++++@@@@@@@@@@@@@@+++++++++++++++.",
".+++++++++++++++@@@@@@@@@@@@@@+++++++++++++++.",
".++++++++++++++++++++++++++++++++++++++++++++.",
".++++++++++++++++++++++++++++++++++++++++++++.",
".++++++++++++++++++++++++++++++++++++++++++++.",
".++++++++++++++++++++++++++++++++++++++++++++.",
".+++++++++++++++@@@@@@@@@@@@@@+++++++++++++++.",
".+++++++++++++++@@@@@@@@@@@@@@+++++++++++++++.",
".++++++++++++++++++++++++++++++++++++++++++++.",
".++++++++++++++++++++++++++++++++++++++++++++.",
".++++++++++++++++++++++++++++++++++++++++++++.",
".++++++++++++++++++++++++++++++++++++++++++++.",
".++++++++++++++++++++++++++++++++++++++++++++.",
".++++++++++++++++++++++++++++++++++++++++++++.",
".++++++++++++++++++++++++++++++++++++++++++++.",
".++++++++++++++++++++++++++++++++++++++++++++.",
".++++++++++++++++++++++++++++++++++++++++++++.",
".++++++++++++++++++++++++++++++++++++++++++++."};
