/* XPM */
static char * menu_active_xpm[] = {
"46 36 3 1",
" 	c #0f56d9 s active_color_1",
".	c #1d2324",
"+	c #FFFFFF",
"..............................................",
"..............................................",
"..............................................",
"..............................................",
"..............................................",
"..............................................",
"..............................................",
"..............................................",
"..............................................",
"..............................................",
"..............................................",
"................++++++++++++++................",
"................++++++++++++++................",
"..............................................",
"..............................................",
"..............................................",
"..............................................",
"................++++++++++++++................",
"................++++++++++++++................",
"..............................................",
"..............................................",
"..............................................",
"..............................................",
"................++++++++++++++................",
"................++++++++++++++................",
"..............................................",
"..............................................",
"..............................................",
"..............................................",
"..............................................",
"..............................................",
"..............................................",
"..............................................",
"..............................................",
"..............................................",
".............................................."};
