/* XPM */
static char * stick_prelight_xpm[] = {
"46 36 4 1",
" 	c #1d2324",
".	c #EDECEB",
"+	c #000000",
"@	c #0f56d9 s active_color_1",
"                                              ",
"                                              ",
".@@@@@@@@@@@@@@@@@@@@@@@@@@@@@@@@@@@@@@@@@@@@.",
".@@@@@@@@@@@@@@@@@@@@@@@@@@@@@@@@@@@@@@@@@@@@.",
".@@@@@@@@@@@@@@@@@@@@@@@@@@@@@@@@@@@@@@@@@@@@.",
".@@@@@@@@@@@@@@@@@@@@@@@@@@@@@@@@@@@@@@@@@@@@.",
"..............................................",
"..............................................",
"..............................................",
"..............................................",
"..............................................",
"..............................................",
".................++++++++++++.................",
"................++++++++++++++................",
"................++..........++................",
"................++..........++................",
"................++..........++................",
"................++..........++................",
"................++..........++................",
"................++..........++................",
"................++..........++................",
"................++..........++................",
"................++..........++................",
"................++..........++................",
"................++++++++++++++................",
".................++++++++++++.................",
"..............................................",
"..............................................",
"..............................................",
"..............................................",
"..............................................",
"..............................................",
"..............................................",
"..............................................",
"..............................................",
".............................................."};
