/* XPM */
static char * bottom_active_xpm[] = {
"24 5 2 1",
"o	c #29353B",
".	c #0f56d9 s active_color_1",
"oooooooooooooooooooooooo",
"oooooooooooooooooooooooo",
"oooooooooooooooooooooooo",
"oooooooooooooooooooooooo",
"........................"};
