/* XPM */
static char * left_active_xpm[] = {
"5 24 2 1",
" 	c #29353B",
".	c #0f56d9 s active_color_1",
".    ",
".    ",
".    ",
".    ",
".    ",
".    ",
".    ",
".    ",
".    ",
".    ",
".    ",
".    ",
".    ",
".    ",
".    ",
".    ",
".    ",
".    ",
".    ",
".    ",
".    ",
".    ",
".    ",
".    "};
