/* XPM */
static char * shade_toggled_active_xpm[] = {
"34 28 3 1",
" 	c #0f56d9 s active_color_1",
".	c #1d2324",
"+	c #FFFFFF",
"..................................",
"..................................",
"..................................",
"..................................",
"..................................",
"..................................",
"..................................",
"..................................",
"..................................",
"..................................",
"............++++++++++............",
"............++++++++++............",
"..................................",
"............++......++............",
"............+++....+++............",
".............+++..+++.............",
"..............++++++..............",
"...............++++...............",
"................++................",
"..................................",
"..................................",
"..................................",
"..................................",
"..................................",
"..................................",
"..................................",
"..................................",
".................................."};
