/* XPM */
static char * top_left_active_xpm[] = {
"8 28 2 1",
" 	c #29353B",
".	c #0f56d9 s active_color_1",
"........",
"........",
"..      ",
"..      ",
"..      ",
"..      ",
"..      ",
"..      ",
"..      ",
"..      ",
"..      ",
"..      ",
"..      ",
"..      ",
"..      ",
"..      ",
"..      ",
"..      ",
"..      ",
"..      ",
"..      ",
"..      ",
"..      ",
"..      ",
"..      ",
"..      ",
"..      ",
"..      "};
