/* XPM */
static char * bottom_right_active_xpm[] = {
"22 22 2 1",
".	c #0f56d9 s active_color_1",
" 	c #29353B",
"                    ..",
"                    ..",
"                    ..",
"                    ..",
"                    ..",
"                    ..",
"                    ..",
"                    ..",
"                    ..",
"                    ..",
"                    ..",
"                    ..",
"                    ..",
"                    ..",
"                    ..",
"                    ..",
"                    ..",
"                    ..",
"                    ..",
"                    ..",
"......................",
"......................"};
