/* XPM */
static char * bottom_right_inactive_xpm[] = {
"51 51 3 1",
"+	c #9598A4",
".	c #EDECEB",
" 	c #29353B",
"                                              ...++",
"                                              ...++",
"                                              ...++",
"                                              ...++",
"                                              ...++",
"                                              ...++",
"                                              ...++",
"                                              ...++",
"                                              ...++",
"                                              ...++",
"                                              ...++",
"                                              ...++",
"                                              ...++",
"                                              ...++",
"                                              ...++",
"                                              ...++",
"                                              ...++",
"                                              ...++",
"                                              ...++",
"                                              ...++",
"                                              ...++",
"                                              ...++",
"                                              ...++",
"                                              ...++",
"                                              ...++",
"                                              ...++",
"                                              ...++",
"                                              ...++",
"                                              ...++",
"                                              ...++",
"                                              ...++",
"                                              ...++",
"                                              ...++",
"                                              ...++",
"                                              ...++",
"                                              ...++",
"                                              ...++",
"                                              ...++",
"                                              ...++",
"                                              ...++",
"                                              ...++",
"                                              ...++",
"                                              ...++",
"                                              ...++",
"                                              ...++",
"                                              ...++",
".................................................++",
".................................................++",
".................................................++",
"+++++++++++++++++++++++++++++++++++++++++++++++++++",
"+++++++++++++++++++++++++++++++++++++++++++++++++++"};
