/* XPM */
static char * bottom_inactive_xpm[] = {
"55 10 3 1",
" 	c #29353B",
".	c #EDECEB",
"+	c #9598A4",
"                                                       ",
"                                                       ",
"                                                       ",
"                                                       ",
"                                                       ",
".......................................................",
".......................................................",
".......................................................",
"+++++++++++++++++++++++++++++++++++++++++++++++++++++++",
"+++++++++++++++++++++++++++++++++++++++++++++++++++++++"};
