/* XPM */
static char * bottom_left_inactive_xpm[] = {
"55 55 3 1",
".	c #9598A4",
"+	c #EDECEB",
" 	c #29353B",
"..+++++++                                              ",
"..+++++++                                              ",
"..+++++++                                              ",
"..+++++++                                              ",
"..+++++++                                              ",
"..+++++++                                              ",
"..+++++++                                              ",
"..+++++++                                              ",
"..+++++++                                              ",
"..+++++++                                              ",
"..+++++++                                              ",
"..+++++++                                              ",
"..+++++++                                              ",
"..+++++++                                              ",
"..+++++++                                              ",
"..+++++++                                              ",
"..+++++++                                              ",
"..+++++++                                              ",
"..+++++++                                              ",
"..+++++++                                              ",
"..+++++++                                              ",
"..+++++++                                              ",
"..+++++++                                              ",
"..+++++++                                              ",
"..+++++++                                              ",
"..+++++++                                              ",
"..+++++++                                              ",
"..+++++++                                              ",
"..+++++++                                              ",
"..+++++++                                              ",
"..+++++++                                              ",
"..+++++++                                              ",
"..+++++++                                              ",
"..+++++++                                              ",
"..+++++++                                              ",
"..+++++++                                              ",
"..+++++++                                              ",
"..+++++++                                              ",
"..+++++++                                              ",
"..+++++++                                              ",
"..+++++++                                              ",
"..+++++++                                              ",
"..+++++++                                              ",
"..+++++++                                              ",
"..+++++++                                              ",
"..+++++++                                              ",
"..+++++++++++++++++++++++++++++++++++++++++++++++++++++",
"..+++++++++++++++++++++++++++++++++++++++++++++++++++++",
"..+++++++++++++++++++++++++++++++++++++++++++++++++++++",
"..+++++++++++++++++++++++++++++++++++++++++++++++++++++",
"..+++++++++++++++++++++++++++++++++++++++++++++++++++++",
"..+++++++++++++++++++++++++++++++++++++++++++++++++++++",
"..+++++++++++++++++++++++++++++++++++++++++++++++++++++",
".......................................................",
"......................................................."};
