/* XPM */
static char * close_active_xpm[] = {
"70 55 8 1",
" 	c #0f56d9 s active_color_1",
".	c #1d2324",
"+	c #9FC1F9",
"@	c #82AFF8",
"#	c #FFFFFF",
"$	c #FDFEFF",
"%	c #A0C2F9",
"&	c #FEFEFF",
"......................................................................",
"......................................................................",
"......................................................................",
"......................................................................",
"......................................................................",
"......................................................................",
"......................................................................",
"......................................................................",
"......................................................................",
"......................................................................",
"......................................................................",
"......................................................................",
"......................................................................",
"......................................................................",
"......................................................................",
"........................+@..................@+........................",
".......................##$@................@$##.......................",
"......................+###$@..............@$###%......................",
"......................@$###$@............@$###$@......................",
".......................@$###$@..........@$###$@.......................",
"........................@$###$@........@$###$@........................",
".........................@$###$@......@$###$@.........................",
"..........................@$###$@....@$###$@..........................",
"...........................@$###$@..@$###$@...........................",
"............................@$###$@@$###$@............................",
".............................@$###&&###$@.............................",
"..............................@$######$@..............................",
"...............................@&####&@...............................",
"...............................@&####&@...............................",
"..............................@$######$@..............................",
".............................@$###&&###$@.............................",
"............................@$###$@@$###$@............................",
"...........................@$###$@..@$###$@...........................",
"..........................@$###$@....@$###$@..........................",
".........................@$###$@......@$###$@.........................",
"........................@$###$@........@$###$@........................",
".......................@$###$@..........@$###$@.......................",
"......................@$###$@............@$###$@......................",
"......................+###$@..............@$###%......................",
".......................##$@................@$##.......................",
"........................+@..................@+........................",
"......................................................................",
"......................................................................",
"......................................................................",
"......................................................................",
"......................................................................",
"......................................................................",
"......................................................................",
"......................................................................",
"......................................................................",
"......................................................................",
"......................................................................",
"......................................................................",
"......................................................................",
"......................................................................"};
