/* XPM */
static char * left_inactive_xpm[] = {
"14 55 3 1",
".	c #9598A4",
"+	c #EDECEB",
" 	c #29353B",
"..+++++++     ",
"..+++++++     ",
"..+++++++     ",
"..+++++++     ",
"..+++++++     ",
"..+++++++     ",
"..+++++++     ",
"..+++++++     ",
"..+++++++     ",
"..+++++++     ",
"..+++++++     ",
"..+++++++     ",
"..+++++++     ",
"..+++++++     ",
"..+++++++     ",
"..+++++++     ",
"..+++++++     ",
"..+++++++     ",
"..+++++++     ",
"..+++++++     ",
"..+++++++     ",
"..+++++++     ",
"..+++++++     ",
"..+++++++     ",
"..+++++++     ",
"..+++++++     ",
"..+++++++     ",
"..+++++++     ",
"..+++++++     ",
"..+++++++     ",
"..+++++++     ",
"..+++++++     ",
"..+++++++     ",
"..+++++++     ",
"..+++++++     ",
"..+++++++     ",
"..+++++++     ",
"..+++++++     ",
"..+++++++     ",
"..+++++++     ",
"..+++++++     ",
"..+++++++     ",
"..+++++++     ",
"..+++++++     ",
"..+++++++     ",
"..+++++++     ",
"..+++++++     ",
"..+++++++     ",
"..+++++++     ",
"..+++++++     ",
"..+++++++     ",
"..+++++++     ",
"..+++++++     ",
"..+++++++     ",
"..+++++++     "};
