/* XPM */
static char * left_active_xpm[] = {
"10 55 2 1",
".	c #0f56d9 s active_color_1",
" 	c #29353B",
"..        ",
"..        ",
"..        ",
"..        ",
"..        ",
"..        ",
"..        ",
"..        ",
"..        ",
"..        ",
"..        ",
"..        ",
"..        ",
"..        ",
"..        ",
"..        ",
"..        ",
"..        ",
"..        ",
"..        ",
"..        ",
"..        ",
"..        ",
"..        ",
"..        ",
"..        ",
"..        ",
"..        ",
"..        ",
"..        ",
"..        ",
"..        ",
"..        ",
"..        ",
"..        ",
"..        ",
"..        ",
"..        ",
"..        ",
"..        ",
"..        ",
"..        ",
"..        ",
"..        ",
"..        ",
"..        ",
"..        ",
"..        ",
"..        ",
"..        ",
"..        ",
"..        ",
"..        ",
"..        ",
"..        ",;
