/* XPM */
static char * maximize_inactive_xpm[] = {
"70 55 3 1",
" 	c None",
".	c #EDECEB",
"+	c #0f56d9 s active_color_1",
"                                                                      ",
"                                                                      ",
"                                                                      ",
"                                                                      ",
"                                                                      ",
"                                                                      ",
"                                                                      ",
"                                                                      ",
"......................................................................",
"......................................................................",
"......................................................................",
"......................................................................",
"......................................................................",
"......................................................................",
"......................................................................",
"......................................................................",
"......................................................................",
"......................................................................",
".......................++++++++++++++++++++++++.......................",
".......................++++++++++++++++++++++++.......................",
".......................++++++++++++++++++++++++.......................",
".......................++++++++++++++++++++++++.......................",
".......................++++................++++.......................",
".......................++++................++++.......................",
".......................++++................++++.......................",
".......................++++................++++.......................",
".......................++++................++++.......................",
".......................++++................++++.......................",
".......................++++................++++.......................",
".......................++++................++++.......................",
".......................++++................++++.......................",
".......................++++................++++.......................",
".......................++++................++++.......................",
".......................++++................++++.......................",
".......................++++................++++.......................",
".......................++++................++++.......................",
".......................++++................++++.......................",
".......................++++................++++.......................",
".......................++++++++++++++++++++++++.......................",
".......................++++++++++++++++++++++++.......................",
".......................++++++++++++++++++++++++.......................",
".......................++++++++++++++++++++++++.......................",
"......................................................................",
"......................................................................",
"......................................................................",
"......................................................................",
"......................................................................",
"......................................................................",
"......................................................................",
"......................................................................",
"......................................................................",
"......................................................................",
"......................................................................",
"......................................................................",
"......................................................................"};
