/* XPM */
static char * maximize_active_xpm[] = {
"70 55 3 1",
" 	c #0f56d9 s active_color_1",
".	c #1d2324",
"+	c #FFFFFF",
"......................................................................",
"......................................................................",
"......................................................................",
"......................................................................",
"......................................................................",
"......................................................................",
"......................................................................",
"......................................................................",
"......................................................................",
"......................................................................",
"......................................................................",
"......................................................................",
"......................................................................",
"......................................................................",
"......................................................................",
"......................................................................",
".......................++++++++++++++++++++++++.......................",
".......................++++++++++++++++++++++++.......................",
".......................++++++++++++++++++++++++.......................",
".......................++++++++++++++++++++++++.......................",
".......................++++................++++.......................",
".......................++++................++++.......................",
".......................++++................++++.......................",
".......................++++................++++.......................",
".......................++++................++++.......................",
".......................++++................++++.......................",
".......................++++................++++.......................",
".......................++++................++++.......................",
".......................++++................++++.......................",
".......................++++................++++.......................",
".......................++++................++++.......................",
".......................++++................++++.......................",
".......................++++................++++.......................",
".......................++++................++++.......................",
".......................++++................++++.......................",
".......................++++................++++.......................",
".......................++++++++++++++++++++++++.......................",
".......................++++++++++++++++++++++++.......................",
".......................++++++++++++++++++++++++.......................",
".......................++++++++++++++++++++++++.......................",
"......................................................................",
"......................................................................",
"......................................................................",
"......................................................................",
"......................................................................",
"......................................................................",
"......................................................................",
"......................................................................",
"......................................................................",
"......................................................................",
"......................................................................",
"......................................................................",
"......................................................................",
"......................................................................",
"......................................................................"};
