/* XPM */
static char * right_active_xpm[] = {
"14 55 2 1",
" 	c #29353B",
".	c #0f56d9 s active_color_1",
"            ..",
"            ..",
"            ..",
"            ..",
"            ..",
"            ..",
"            ..",
"            ..",
"            ..",
"            ..",
"            ..",
"            ..",
"            ..",
"            ..",
"            ..",
"            ..",
"            ..",
"            ..",
"            ..",
"            ..",
"            ..",
"            ..",
"            ..",
"            ..",
"            ..",
"            ..",
"            ..",
"            ..",
"            ..",
"            ..",
"            ..",
"            ..",
"            ..",
"            ..",
"            ..",
"            ..",
"            ..",
"            ..",
"            ..",
"            ..",
"            ..",
"            ..",
"            ..",
"            ..",
"            ..",
"            ..",
"            ..",
"            ..",
"            ..",
"            ..",
"            ..",
"            ..",
"            ..",
"            ..",
"            .."};
