/* XPM */
static char * shade_active_xpm[] = {
"70 55 8 1",
" 	c #0f56d9 s active_color_1",
".	c #1d2324",
"+	c #FFFFFF",
"@	c #82AFF8",
"#	c #FEFEFF",
"$	c #FDFEFF",
"%	c #9EC0F8",
"&	c #9FC1F8",
"......................................................................",
"......................................................................",
"......................................................................",
"......................................................................",
"......................................................................",
"......................................................................",
"......................................................................",
"......................................................................",
"......................................................................",
"......................................................................",
"......................................................................",
"......................................................................",
"......................................................................",
"......................................................................",
"......................................................................",
"......................................................................",
".......................++++++++++++++++++++++++.......................",
".......................++++++++++++++++++++++++.......................",
".......................++++++++++++++++++++++++.......................",
".......................++++++++++++++++++++++++.......................",
"......................................................................",
"......................................................................",
"......................................................................",
"..................................@@..................................",
".................................@++@.................................",
"................................@++++@................................",
"...............................@#++++#@...............................",
"..............................@$++++++$@..............................",
".............................@$+++##+++$@.............................",
"............................@$+++$@@$+++$@............................",
"...........................@$+++$@..@$+++$@...........................",
"..........................@$+++$@....@$+++$@..........................",
".........................@$+++$@......@$+++$@.........................",
"........................@$+++$@........@$+++$@........................",
".......................@$+++$@..........@$+++$@.......................",
"......................@$+++$@............@$+++$@......................",
"......................%+++$@..............@$+++&......................",
".......................++$@................@$++.......................",
"........................%@..................@%........................",
"......................................................................",
"......................................................................",
"......................................................................",
"......................................................................",
"......................................................................",
"......................................................................",
"......................................................................",
"......................................................................",
"......................................................................",
"......................................................................",
"......................................................................",
"......................................................................",
"......................................................................",
"......................................................................",
"......................................................................",
"......................................................................"};
