/* XPM */
static char * shade_prelight_xpm[] = {
"70 55 9 1",
" 	c #1d2324",
".	c #EDECEB",
"+	c #000000",
"@	c #9B9895",
"#	c #010100",
"$	c #020100",
"%	c #787878",
"&	c #777676",
">	c #0f56d9 s active_color_1",
"                                                                      ",
"                                                                      ",
"                                                                      ",
"                                                                      ",
"                                                                      ",
"                                                                      ",
".>>>>>>>>>>>>>>>>>>>>>>>>>>>>>>>>>>>>>>>>>>>>>>>>>>>>>>>>>>>>>>>>>>>>.",
".>>>>>>>>>>>>>>>>>>>>>>>>>>>>>>>>>>>>>>>>>>>>>>>>>>>>>>>>>>>>>>>>>>>>.",
".>>>>>>>>>>>>>>>>>>>>>>>>>>>>>>>>>>>>>>>>>>>>>>>>>>>>>>>>>>>>>>>>>>>>.",
".>>>>>>>>>>>>>>>>>>>>>>>>>>>>>>>>>>>>>>>>>>>>>>>>>>>>>>>>>>>>>>>>>>>>.",
".>>>>>>>>>>>>>>>>>>>>>>>>>>>>>>>>>>>>>>>>>>>>>>>>>>>>>>>>>>>>>>>>>>>>.",
".>>>>>>>>>>>>>>>>>>>>>>>>>>>>>>>>>>>>>>>>>>>>>>>>>>>>>>>>>>>>>>>>>>>>.",
".>>>>>>>>>>>>>>>>>>>>>>>>>>>>>>>>>>>>>>>>>>>>>>>>>>>>>>>>>>>>>>>>>>>>.",
".>>>>>>>>>>>>>>>>>>>>>>>>>>>>>>>>>>>>>>>>>>>>>>>>>>>>>>>>>>>>>>>>>>>>.",
"......................................................................",
"......................................................................",
"......................................................................",
"......................................................................",
".......................++++++++++++++++++++++++.......................",
".......................++++++++++++++++++++++++.......................",
".......................++++++++++++++++++++++++.......................",
".......................++++++++++++++++++++++++.......................",
"......................................................................",
"......................................................................",
"......................................................................",
"..................................@@..................................",
".................................@++@.................................",
"................................@++++@................................",
"...............................@#++++#@...............................",
"..............................@$++++++$@..............................",
".............................@$+++##+++$@.............................",
"............................@$+++$@@$+++$@............................",
"...........................@$+++$@..@$+++$@...........................",
"..........................@$+++$@....@$+++$@..........................",
".........................@$+++$@......@$+++$@.........................",
"........................@$+++$@........@$+++$@........................",
".......................@$+++$@..........@$+++$@.......................",
"......................@$+++$@............@$+++$@......................",
"......................%+++$@..............@$+++&......................",
".......................++$@................@$++.......................",
"........................%@..................@%........................",
"......................................................................",
"......................................................................",
"......................................................................",
"......................................................................",
"......................................................................",
"......................................................................",
"......................................................................",
"......................................................................",
"......................................................................",
"......................................................................",
"......................................................................",
"......................................................................",
"......................................................................",
"......................................................................"};
