/* XPM */
static char * stick_toggled_active_xpm[] = {
"70 55 14 1",
" 	c #0f56d9 s active_color_1",
".	c #1d2324",
"+	c #4486F4",
"@	c #78A7F7",
"#	c #C0D6FB",
"$	c #F3F7FE",
"%	c #FFFFFF",
"&	c #5E97F5",
"*	c #F1F6FE",
"=	c #EAF2FD",
"-	c #9ABDF9",
";	c #649BF5",
">	c #4788F4",
",	c #4889F4",
"......................................................................",
"......................................................................",
"......................................................................",
"......................................................................",
"......................................................................",
"......................................................................",
"......................................................................",
"......................................................................",
"......................................................................",
"......................................................................",
"......................................................................",
"......................................................................",
"......................................................................",
"......................................................................",
"......................................................................",
"......................................................................",
"..........................+@#$%%%%%%%%%%%#@+..........................",
".........................&*%%%%%%%%%%%%%%%%*&.........................",
"........................&%%%%%%%%%%%%%%%%%%%%&........................",
".......................+*%%%%%%%%%%%%%%%%%%%%*+.......................",
".......................@%%%%=-;>.......;-=%%%%@.......................",
".......................#%%%=,............,=%%%#.......................",
".......................$%%%-.+@#$%%%%%#@+.-%%%$.......................",
".......................%%%%;.@%%%%%%%%%%@.;%%%%.......................",
".......................%%%%>.#%%%%%%%%%%#.>%%%%.......................",
".......................%%%%..$%%%%%%%%%%$..%%%%.......................",
".......................%%%%..%%%%%%%%%%%%..%%%%.......................",
".......................%%%%..%%%%%%%%%%%%..%%%%.......................",
".......................%%%%..%%%%%%%%%%%%..%%%%.......................",
".......................%%%%..%%%%%%%%%%%%..%%%%.......................",
".......................%%%%..$%%%%%%%%%%$..%%%%.......................",
".......................%%%%>.#%%%%%%%%%%#.>%%%%.......................",
".......................%%%%;.@%%%%%%%%%%@.;%%%%.......................",
".......................$%%%-.+@#$%%%%%#@+.-%%%$.......................",
".......................#%%%=,............,=%%%#.......................",
".......................@%%%%=-;>.......;-=%%%%@.......................",
".......................+*%%%%%%%%%%%%%%%%%%%%*+.......................",
"........................&%%%%%%%%%%%%%%%%%%%%&........................",
".........................&*%%%%%%%%%%%%%%%%*&.........................",
"..........................+@#$%%%%%%%%%%%#@+..........................",
"......................................................................",
"......................................................................",
"......................................................................",
"......................................................................",
"......................................................................",
"......................................................................",
"......................................................................",
"......................................................................",
"......................................................................",
"......................................................................",
"......................................................................",
"......................................................................",
"......................................................................",
"......................................................................",
"......................................................................"};
