/* XPM */
static char * stick_toggled_inactive_xpm[] = {
"70 55 14 1",
" 	c None",
".	c #EDECEB",
"+	c #0f56d9 s active_color_1",
"@	c #0f56d9 s active_color_1",
"#	c #0f56d9 s active_color_1",
"$	c #0f56d9 s active_color_1",
"%	c #0f56d9 s active_color_1",
"&	c #0f56d9 s active_color_1",
"*	c #0f56d9 s active_color_1",
"=	c #0f56d9 s active_color_1",
"-	c #0f56d9 s active_color_1",
";	c #0f56d9 s active_color_1",
">	c #0f56d9 s active_color_1",
",	c #0f56d9 s active_color_1",
"                                                                      ",
"                                                                      ",
"                                                                      ",
"                                                                      ",
"                                                                      ",
"                                                                      ",
"                                                                      ",
"                                                                      ",
"......................................................................",
"......................................................................",
"......................................................................",
"......................................................................",
"......................................................................",
"......................................................................",
"......................................................................",
"......................................................................",
"......................................................................",
"......................................................................",
"..........................+@#$%%%%%%%%%%%#@+..........................",
".........................&*%%%%%%%%%%%%%%%%*&.........................",
"........................&%%%%%%%%%%%%%%%%%%%%&........................",
".......................+*%%%%%%%%%%%%%%%%%%%%*+.......................",
".......................@%%%%=-;>.......;-=%%%%@.......................",
".......................#%%%=,............,=%%%#.......................",
".......................$%%%-.+@#$%%%%%#@+.-%%%$.......................",
".......................%%%%;.@%%%%%%%%%%@.;%%%%.......................",
".......................%%%%>.#%%%%%%%%%%#.>%%%%.......................",
".......................%%%%..$%%%%%%%%%%$..%%%%.......................",
".......................%%%%..%%%%%%%%%%%%..%%%%.......................",
".......................%%%%..%%%%%%%%%%%%..%%%%.......................",
".......................%%%%..%%%%%%%%%%%%..%%%%.......................",
".......................%%%%..%%%%%%%%%%%%..%%%%.......................",
".......................%%%%..$%%%%%%%%%%$..%%%%.......................",
".......................%%%%>.#%%%%%%%%%%#.>%%%%.......................",
".......................%%%%;.@%%%%%%%%%%@.;%%%%.......................",
".......................$%%%-.+@#$%%%%%#@+.-%%%$.......................",
".......................#%%%=,............,=%%%#.......................",
".......................@%%%%=-;>.......;-=%%%%@.......................",
".......................+*%%%%%%%%%%%%%%%%%%%%*+.......................",
"........................&%%%%%%%%%%%%%%%%%%%%&........................",
".........................&*%%%%%%%%%%%%%%%%*&.........................",
"..........................+@#$%%%%%%%%%%%#@+..........................",
"......................................................................",
"......................................................................",
"......................................................................",
"......................................................................",
"......................................................................",
"......................................................................",
"......................................................................",
"......................................................................",
"......................................................................",
"......................................................................",
"......................................................................",
"......................................................................",
"......................................................................"};
