/* XPM */
static char * top_right_inactive_xpm[] = {
"10 55 3 1",
".	c #9598A4",
"+	c #EDECEB",
" 	c None",
"..........",
"..........",
"++++++++..",
"++++++++..",
"++++++++..",
"++++++++..",
"++++++++..",
"++++++++..",
"++++++++..",
"++++++++..",
"++++++++..",
"++++++++..",
"++++++++..",
"++++++++..",
"++++++++..",
"++++++++..",
"++++++++..",
"++++++++..",
"++++++++..",
"++++++++..",
"++++++++..",
"++++++++..",
"++++++++..",
"++++++++..",
"++++++++..",
"++++++++..",
"++++++++..",
"++++++++..",
"++++++++..",
"++++++++..",
"++++++++..",
"++++++++..",
"++++++++..",
"++++++++..",
"++++++++..",
"++++++++..",
"++++++++..",
"++++++++..",
"++++++++..",
"++++++++..",
"++++++++..",
"++++++++..",
"++++++++..",
"++++++++..",
"++++++++..",
"++++++++..",
"++++++++..",
"++++++++..",
"++++++++..",
"++++++++..",
"++++++++..",
"++++++++..",
"++++++++..",
"++++++++..",
"++++++++.."};
