/* XPM */
static char * bottom_left_inactive_xpm[] = {
"24 24 3 1",
" 	c #29353B",
"+	c #EDECEB",
".	c #9598A4",
"..++                    ",
"..++                    ",
"..++                    ",
"..++                    ",
"..++                    ",
"..++                    ",
"..++                    ",
"..++                    ",
"..++                    ",
"..++                    ",
"..++                    ",
"..++                    ",
"..++                    ",
"..++                    ",
"..++                    ",
"..++                    ",
"..++                    ",
"..++                    ",
"..++                    ",
"..++                    ",
"..++++++++++++++++++++++",
"..++++++++++++++++++++++",
"........................",
"........................"};
