/* XPM */
static char * close_pressed_xpm[] = {
"34 28 4 1",
" 	c None",
".	c #1d2324",
"+	c #FF0000",
"@	c #FFFFFF",
"                                  ",
"                                  ",
"                                  ",
"..................................",
".++++++++++++++++++++++++++++++++.",
".++++++++++++++++++++++++++++++++.",
".++++++++++++++++++++++++++++++++.",
".++++++++++++++++++++++++++++++++.",
".++++++++++++++++++++++++++++++++.",
".++++++++++++++++++++++++++++++++.",
".+++++++++++@@++++++@@+++++++++++.",
".+++++++++++@@@++++@@@+++++++++++.",
".++++++++++++@@@++@@@++++++++++++.",
".+++++++++++++@@@@@@+++++++++++++.",
".++++++++++++++@@@@++++++++++++++.",
".++++++++++++++@@@@++++++++++++++.",
".+++++++++++++@@@@@@+++++++++++++.",
".++++++++++++@@@++@@@++++++++++++.",
".+++++++++++@@@++++@@@+++++++++++.",
".+++++++++++@@++++++@@+++++++++++.",
".++++++++++++++++++++++++++++++++.",
".++++++++++++++++++++++++++++++++.",
".++++++++++++++++++++++++++++++++.",
".++++++++++++++++++++++++++++++++.",
".++++++++++++++++++++++++++++++++.",
".++++++++++++++++++++++++++++++++.",
".++++++++++++++++++++++++++++++++.",
".++++++++++++++++++++++++++++++++."};
