/* XPM */
static char * hide_inactive_xpm[] = {
"34 28 3 1",
" 	c None",
".	c #EDECEB",
"+	c #0f56d9 s active_color_1",
"                                  ",
"                                  ",
"..................................",
"..................................",
"..................................",
"..................................",
"..................................",
"..................................",
"..................................",
"..................................",
"..................................",
"..................................",
"..................................",
"..................................",
"............++++++++++............",
"............++++++++++............",
"..................................",
"..................................",
"..................................",
"..................................",
"..................................",
"..................................",
"..................................",
"..................................",
"..................................",
"..................................",
"..................................",
".................................."};
