/* XPM */
static char * maximize_toggled_pressed_xpm[] = {
"34 28 4 1",
" 	c None",
".	c #EDECEB",
"+	c #1d2324",
"@	c #FFFFFF",
"                                  ",
"                                  ",
"..................................",
".++++++++++++++++++++++++++++++++.",
".++++++++++++++++++++++++++++++++.",
".++++++++++++++++++++++++++++++++.",
".++++++++++++++++++++++++++++++++.",
".++++++++++++++++++++++++++++++++.",
".++++++++++++++++++++++++++++++++.",
".++++++++++++++++++++++++++++++++.",
".+++++++++++++@@@@@@@@+++++++++++.",
".+++++++++++++@@@@@@@@+++++++++++.",
".+++++++++++++++++++@@+++++++++++.",
".+++++++++++@@@@@@@+@@+++++++++++.",
".+++++++++++@@@@@@@+@@+++++++++++.",
".+++++++++++@@+++@@+@@+++++++++++.",
".+++++++++++@@+++@@+@@+++++++++++.",
".+++++++++++@@+++@@+@@+++++++++++.",
".+++++++++++@@@@@@@++++++++++++++.",
".+++++++++++@@@@@@@++++++++++++++.",
".++++++++++++++++++++++++++++++++.",
".++++++++++++++++++++++++++++++++.",
".++++++++++++++++++++++++++++++++.",
".++++++++++++++++++++++++++++++++.",
".++++++++++++++++++++++++++++++++.",
".++++++++++++++++++++++++++++++++.",
".++++++++++++++++++++++++++++++++.",
".++++++++++++++++++++++++++++++++."};
