/* XPM */
static char * menu_inactive_xpm[] = {
"34 28 3 1",
" 	c #9598A4",
".	c #EDECEB",
"+	c #0f56d9 s active_color_1",
"                                  ",
"                                  ",
"..................................",
"..................................",
"..................................",
"..................................",
"..................................",
"..................................",
"..................................",
"..................................",
"............++++++++++............",
"............++++++++++............",
"..................................",
"..................................",
"............++++++++++............",
"............++++++++++............",
"..................................",
"..................................",
"............++++++++++............",
"............++++++++++............",
"..................................",
"..................................",
"..................................",
"..................................",
"..................................",
"..................................",
"..................................",
".................................."};
