/* XPM */
static char * right_inactive_xpm[] = {
"5 24 3 1",
" 	c #29353B",
".	c #EDECEB",
"+	c #9598A4",
" ..++",
" ..++",
" ..++",
" ..++",
" ..++",
" ..++",
" ..++",
" ..++",
" ..++",
" ..++",
" ..++",
" ..++",
" ..++",
" ..++",
" ..++",
" ..++",
" ..++",
" ..++",
" ..++",
" ..++",
" ..++",
" ..++",
" ..++",
" ..++"};
