/* XPM */
static char * title_4_inactive_xpm[] = {
"8 28 3 1",
" 	c None",
".	c #9598A4",
"+	c #EDECEB",
"........",
"........",
"++++++++",
"++++++++",
"++++++++",
"++++++++",
"++++++++",
"++++++++",
"++++++++",
"++++++++",
"++++++++",
"++++++++",
"++++++++",
"++++++++",
"++++++++",
"++++++++",
"++++++++",
"++++++++",
"++++++++",
"++++++++",
"+++++++.",
"+++++++.",
"+++++++.",
"+++++++.",
"........",
"++++++++",
"++++++++",
"++++++++"};
