/* XPM */
static char * top_left_inactive_xpm[] = {
"8 28 3 1",
".	c #9598A4",
"+	c #EDECEB",
" 	c #29353B",
"........",
"........",
"..++++++",
"..++++++",
"..++++++",
"..++++++",
"..++++++",
"..++++++",
"..++++++",
"..++++++",
"..++++++",
"..++++++",
"..++++++",
"..++++++",
"..++++++",
"..++++++",
"..++++++",
"..++++++",
"..++++++",
"..++++++",
"..++++++",
"..++++++",
"..++++++",
"..++++++",
"..++++++",
"..++++++",
"..++++++",
"..++++++"};
